#!OML:ASF X:\für Bonn\!DataBase\2005_08_12_Daniel\c3d\Daniel.ASF
:FULLY-SPECIFIED
:DEGREES
86
root -4.10802 17.2717 0.518581 483.774 -75.6219 -503.288
lowerback 32.1757 -12.7479 -1.9596
upperback 8.75305 -18.1128 -0.115803
thorax -6.31617 -9.27907 7.39041
lowerneck 5.59118 11.4986 2.49592
upperneck 4.74732 15.377 -6.26355
head 1.30634 7.61031 -2.39451
rclavicle 6.95746e-014 -6.36111e-014
rhumerus -47.5512 9.83502 -75.7437
rradius 38.6412
rwrist 16.3133
rhand -34.9302 35.3849
rfingers 7.12502
rthumb -8.07737 5.55924
lclavicle 6.95746e-014 -6.36111e-014
lhumerus 14.2865 3.32261 70.9135
lradius 120.535
lwrist 30.8415
lhand -12.441 -11.3361
lfingers 7.12502
lthumb 13.632 18.1975
rfemur -41.6358 -10.855 21.7085
rtibia 87.5534
rfoot 2.01676 4.33039
rtoes -6.81581
lfemur 9.16687 -7.92858 -19.6394
ltibia 33.7535
lfoot -28.9863 10.5449
ltoes 7.86005
87
root -4.13637 17.2697 0.50347 484.981 -75.6079 -504.079
lowerback 31.3689 -12.5555 -1.88307
upperback 8.49609 -17.7899 -0.00814353
thorax -6.27544 -9.10165 7.22249
lowerneck 5.36174 11.3942 2.39768
upperneck 4.92325 15.2414 -6.27284
head 1.38728 7.53263 -2.3632
rclavicle -9.47209e-014 4.85035e-014
rhumerus -46.9508 9.31395 -75.7433
rradius 38.7025
rwrist 16.4297
rhand -34.7139 35.1726
rfingers 7.12502
rthumb -7.86862 5.33906
lclavicle -9.47209e-014 4.85035e-014
lhumerus 13.0708 3.06959 70.848
lradius 119.993
lwrist 30.2988
lhand -12.4863 -11.18
lfingers 7.12502
lthumb 13.5884 18.3565
rfemur -39.7949 -9.91516 21.356
rtibia 85.5535
rfoot 2.02202 3.97461
rtoes -7.20406
lfemur 8.75191 -7.9943 -19.7858
ltibia 33.9426
lfoot -29.2995 10.7181
ltoes 7.82865
88
root -4.16569 17.2679 0.487024 486.07 -75.643 -504.758
lowerback 30.5396 -12.3681 -1.81375
upperback 8.26297 -17.4794 0.0876428
thorax -6.19169 -8.93496 7.04207
lowerneck 5.20249 11.2809 2.4331
upperneck 5.04382 15.1021 -6.38663
head 1.45907 7.45726 -2.39272
rclavicle -3.85642e-014 5.64548e-014
rhumerus -46.2914 8.84994 -75.7965
rradius 38.707
rwrist 16.3952
rhand -34.4008 34.9443
rfingers 7.12502
rthumb -7.56646 5.0996
lclavicle -3.85642e-014 5.64548e-014
lhumerus 11.8797 2.77744 70.7763
lradius 119.427
lwrist 29.6784
lhand -12.5444 -11.0165
lfingers 7.12502
lthumb 13.5323 18.5238
rfemur -37.9726 -9.04611 21.0039
rtibia 83.5283
rfoot 1.9877 3.64579
rtoes -7.96891
lfemur 8.36149 -8.07535 -19.9449
ltibia 34.0854
lfoot -29.573 10.8894
ltoes 7.71813
89
root -4.196 17.2667 0.4686 487.228 -75.7092 -505.537
lowerback 29.7348 -12.1627 -1.79364
upperback 8.02598 -17.1623 0.175339
thorax -6.10733 -8.76501 6.88323
lowerneck 5.13012 11.1549 2.46321
upperneck 5.14552 14.9427 -6.47978
head 1.50675 7.37324 -2.42198
rclavicle -1.41137e-014 4.37326e-015
rhumerus -45.6636 8.47656 -75.8937
rradius 38.6998
rwrist 16.2125
rhand -34.0675 34.6926
rfingers 7.12502
rthumb -7.2447 4.83657
lclavicle -1.41137e-014 4.37326e-015
lhumerus 10.6479 2.46327 70.8049
lradius 118.805
lwrist 28.9795
lhand -12.559 -10.8575
lfingers 7.12502
lthumb 13.5183 18.6837
rfemur -36.1577 -8.14887 20.6375
rtibia 81.4885
rfoot 1.90326 3.31125
rtoes -9.04644
lfemur 8.02915 -8.17421 -20.1515
ltibia 34.1926
lfoot -29.8431 11.0551
ltoes 7.68343
90
root -4.22667 17.2645 0.449297 488.349 -75.8044 -506.306
lowerback 28.9528 -11.9504 -1.78383
upperback 7.79049 -16.8405 0.253834
thorax -6.02686 -8.5927 6.72631
lowerneck 5.14607 11.0219 2.52527
upperneck 5.19839 14.7735 -6.60211
head 1.52824 7.28715 -2.47325
rclavicle 7.97127e-014 -4.73108e-014
rhumerus -45.0404 8.10247 -75.9975
rradius 38.6541
rwrist 15.9538
rhand -33.6957 34.4301
rfingers 7.12502
rthumb -6.88584 4.5621
lclavicle 7.97127e-014 -4.73108e-014
lhumerus 9.34842 2.13816 70.8643
lradius 118.161
lwrist 28.3416
lhand -12.6015 -10.7682
lfingers 7.12502
lthumb 13.4773 18.7757
rfemur -34.3603 -7.26242 20.2845
rtibia 79.4476
rfoot 1.78299 2.95578
rtoes -10.5059
lfemur 7.72635 -8.28918 -20.387
ltibia 34.2906
lfoot -30.0948 11.2464
ltoes 7.606
91
root -4.25681 17.2603 0.429317 489.53 -75.9252 -507.163
lowerback 28.1835 -11.7162 -1.78828
upperback 7.57801 -16.4981 0.31032
thorax -5.9265 -8.41275 6.54984
lowerneck 5.14689 10.8687 2.60404
upperneck 5.23248 14.5786 -6.72223
head 1.54557 7.18937 -2.52685
rclavicle 7.25564e-015 4.13472e-014
rhumerus -44.4331 7.77706 -76.1582
rradius 38.6092
rwrist 15.5623
rhand -33.2996 34.1676
rfingers 7.12502
rthumb -6.50344 4.28744
lclavicle 7.25564e-015 4.13472e-014
lhumerus 8.05491 1.80643 70.9673
lradius 117.438
lwrist 27.6318
lhand -12.5506 -10.7118
lfingers 7.12502
lthumb 13.5263 18.8289
rfemur -32.6062 -6.36023 19.9211
rtibia 77.428
rfoot 1.62881 2.53761
rtoes -11.8878
lfemur 7.44952 -8.41639 -20.6609
ltibia 34.3903
lfoot -30.3686 11.4186
ltoes 7.52135
92
root -4.28507 17.2537 0.408704 490.692 -76.0721 -508.049
lowerback 27.5078 -11.481 -1.84266
upperback 7.35873 -16.1693 0.363773
thorax -5.85932 -8.23755 6.42354
lowerneck 5.13977 10.723 2.6664
upperneck 5.28913 14.3934 -6.8472
head 1.5709 7.0949 -2.57838
rclavicle -5.14852e-014 3.33958e-014
rhumerus -43.8694 7.58878 -76.3534
rradius 38.5802
rwrist 15.1457
rhand -32.9528 33.8574
rfingers 7.12502
rthumb -6.16861 3.96719
lclavicle -5.14852e-014 3.33958e-014
lhumerus 6.66905 1.51238 71.1165
lradius 116.677
lwrist 26.9061
lhand -12.5788 -10.6633
lfingers 7.12502
lthumb 13.4991 18.8792
rfemur -30.8888 -5.44338 19.5678
rtibia 75.4409
rfoot 1.43734 2.038
rtoes -12.8338
lfemur 7.20271 -8.54124 -20.9577
ltibia 34.5024
lfoot -30.6213 11.6018
ltoes 7.45852
